:FULLY-SPECIFIED
:FORCE-ALL-JOINTS-BE-3DOF
:DEGREES
170
root 6.38761 16.1452 -25.6272 3.68764 27.4546 0.618613
lfemur -21.4343 23.5385 -9.34977
ltibia 37.2182 -0 0
lfoot -11.227 -2.87355 0.457124
ltoes 14.0138 -0 0
rfemur -24.8771 -10.1088 -3.22283
rtibia 64.288 -0 0
rfoot 1.15792 -23.6827 0.190843
rtoes 40.2324 -0 0
lowerback 1.02626 -4.90982 -1.39489
upperback 0.199172 -6.5367 -2.84022
thorax -0.35884 -3.27943 -1.95472
lowerneck -10.2844 -6.51993 -0.319431
upperneck 2.41432 -8.95263 5.43945
head 2.8542 -4.25387 1.30842
lclavicle -1.60469e-13 -1.03368e-14 0
lhumerus -49.8327 -42.3094 113.311
lradius 51.6031 -0 0
lwrist 13.5264 0 0
lhand 38.233 24.8661 0.0350004
lfingers 7.12502 -0 0
lthumb 60.9103 37.6181 0.022284
rclavicle -1.60469e-13 -1.03368e-14 0
rhumerus -52.1971 -4.31398 -83.5455
rradius 96.6448 -0 0
rwrist -12.3832 0 0
rhand 3.78 -18.078 0.717461
rfingers 7.12502 -0 0
rthumb 29.0034 -44.0723 1.33755
171
root 6.33524 16.1391 -25.607 3.84552 26.8168 0.726592
lfemur -21.3115 22.7268 -8.50362
ltibia 37.3663 -0 0
lfoot -11.7345 -4.51828 0.435258
ltoes 11.1452 -0 0
rfemur -23.5204 -9.45713 -3.59458
rtibia 61.4706 -0 0
rfoot -0.428638 -23.9022 0.181719
rtoes 40.464 -0 0
lowerback 0.718169 -4.58331 -1.23
upperback 0.169656 -6.09333 -3.0952
thorax -0.259844 -3.05785 -2.34114
lowerneck -10.2809 -6.6023 -0.122345
upperneck 2.41732 -9.08735 5.43712
head 2.84762 -4.31847 1.2656
lclavicle -1.60469e-13 -1.03368e-14 0
lhumerus -50.2744 -42.4217 113.59
lradius 51.6857 -0 0
lwrist 13.8172 0 0
lhand 38.3619 25.3601 0.0333331
lfingers 7.12502 -0 0
lthumb 61.0194 37.9895 0.0212226
rclavicle -1.60469e-13 -1.03368e-14 0
rhumerus -52.1879 -2.44304 -84.6325
rradius 96.5942 -0 0
rwrist -10.7955 0 0
rhand 1.35153 -18.6197 0.682972
rfingers 7.12502 -0 0
rthumb 26.6938 -45.1348 1.27323
172
root 6.28287 16.133 -25.5868 4.00119 26.1787 0.832015
lfemur -21.2024 21.9136 -7.66426
ltibia 37.5143 -0 0
lfoot -12.2411 -6.16274 0.398836
ltoes 8.27661 -0 0
rfemur -22.1705 -8.79696 -3.94994
rtibia 58.6532 -0 0
rfoot -2.01515 -24.1214 0.166522
rtoes 40.6957 -0 0
lowerback 0.411159 -4.25592 -1.06694
upperback 0.138182 -5.65009 -3.3502
thorax -0.162366 -2.8356 -2.7271
lowerneck -10.2776 -6.68468 0.0747697
upperneck 2.42032 -9.22207 5.43478
head 2.84109 -4.38309 1.22278
lclavicle -1.60469e-13 -1.03368e-14 0
lhumerus -50.7175 -42.5323 113.871
lradius 51.7683 -0 0
lwrist 14.108 0 0
lhand 38.4908 25.854 0.0305543
lfingers 7.12502 -0 0
lthumb 61.1286 38.3608 0.0194537
rclavicle -1.60469e-13 -1.03368e-14 0
rhumerus -52.2142 -0.572257 -85.7184
rradius 96.5436 -0 0
rwrist -9.20784 0 0
rhand -1.07649 -19.1595 0.625563
rfingers 7.12502 -0 0
rthumb 24.3859 -46.1938 1.16616
173
root 6.23051 16.1269 -25.5666 4.15471 25.5404 0.934949
lfemur -21.1067 21.099 -6.83125
ltibia 37.6624 -0 0
lfoot -12.7465 -7.8068 0.347891
ltoes 5.40799 -0 0
rfemur -20.8271 -8.12872 -4.28888
rtibia 55.8358 -0 0
rfoot -3.60159 -24.3401 0.145262
rtoes 40.9274 -0 0
lowerback 0.10521 -3.92767 -0.905701
upperback 0.104751 -5.20699 -3.60526
thorax -0.0664073 -2.61271 -3.11261
lowerneck -10.2747 -6.76708 0.271913
upperneck 2.42333 -9.35679 5.43243
head 2.8346 -4.44771 1.17997
lclavicle -1.60469e-13 -1.03368e-14 0
lhumerus -51.1622 -42.6414 114.153
lradius 51.8509 -0 0
lwrist 14.3987 0 0
lhand 38.6197 26.348 0.0266643
lfingers 7.12502 -0 0
lthumb 61.2377 38.7322 0.0169773
rclavicle -1.60469e-13 -1.03368e-14 0
rhumerus -52.2759 1.29769 -86.8053
rradius 96.493 -0 0
rwrist -7.62015 0 0
rhand -3.50382 -19.6964 0.545342
rfingers 7.12502 -0 0
rthumb 22.0804 -47.2476 1.01657
174
root 6.17814 16.1208 -25.5465 4.30617 24.9019 1.03546
lfemur -21.0242 20.2831 -6.00416
ltibia 37.8104 -0 0
lfoot -13.2503 -9.45034 0.28247
ltoes 2.53937 -0 0
rfemur -19.4899 -7.45282 -4.61138
rtibia 53.0184 -0 0
rfoot -5.18794 -24.5581 0.117956
rtoes 41.159 -0 0
lowerback -0.199696 -3.59857 -0.746287
upperback 0.0693629 -4.76405 -3.86041
thorax 0.028032 -2.38917 -3.49768
lowerneck -10.272 -6.84948 0.469086
upperneck 2.42635 -9.49151 5.43007
head 2.82817 -4.51233 1.13716
lclavicle -1.60469e-13 -1.03368e-14 0
lhumerus -51.6083 -42.7488 114.437
lradius 51.9335 -0 0
lwrist 14.6895 0 0
lhand 38.7485 26.8419 0.0216635
lfingers 7.12502 -0 0
lthumb 61.3469 39.1035 0.0137936
rclavicle -1.60469e-13 -1.03368e-14 0
rhumerus -52.3733 3.16612 -87.8956
rradius 96.4424 -0 0
rwrist -6.03246 0 0
rhand -5.93027 -20.2294 0.442461
rfingers 7.12502 -0 0
rthumb 19.7782 -48.2945 0.824742
175
root 6.12577 16.1147 -25.5263 4.45563 24.2631 1.1336
lfemur -20.9545 19.4663 -5.18256
ltibia 37.9585 -0 0
lfoot -13.7519 -11.0932 0.202631
ltoes -0.329245 0 0
rfemur -18.1585 -6.76967 -4.91743
rtibia 50.201 -0 0
rfoot -6.77417 -24.7752 0.0846254
rtoes 41.3907 -0 0
lowerback -0.50358 -3.26862 -0.588684
upperback 0.0320189 -4.32126 -4.11567
thorax 0.120951 -2.16501 -3.88233
lowerneck -10.2697 -6.93189 0.666289
upperneck 2.42938 -9.62623 5.42771
head 2.82178 -4.57696 1.09435
lclavicle -1.60469e-13 -1.03368e-14 0
lhumerus -52.056 -42.8546 114.723
lradius 52.0161 -0 0
lwrist 14.9803 0 0
lhand 38.8773 27.3359 0.0155521
lfingers 7.12502 -0 0
lthumb 61.456 39.4749 0.00990266
rclavicle -1.60469e-13 -1.03368e-14 0
rhumerus -52.5065 5.03236 -88.9916
rradius 96.3918 -0 0
rwrist -4.44477 0 0
rhand -8.35562 -20.7575 0.317113
rfingers 7.12502 -0 0
rthumb 17.4799 -49.3328 0.591055
176
root 6.07341 16.1086 -25.5061 4.60316 23.624 1.22945
lfemur -20.8976 18.6486 -4.36605
ltibia 38.1065 -0 0
lfoot -14.2511 -12.7354 0.108446
ltoes -3.19786 0 0
rfemur -16.8326 -6.07966 -5.20702
rtibia 47.3836 -0 0
rfoot -8.36026 -24.9914 0.0452966
rtoes 41.6223 -0 0
lowerback -0.806458 -2.93785 -0.432884
upperback -0.00728124 -3.87865 -4.37109
thorax 0.212349 -1.94023 -4.26655
lowerneck -10.2676 -7.01431 0.863523
upperneck 2.43241 -9.76095 5.42533
head 2.81544 -4.64159 1.05155
lclavicle -1.60469e-13 -1.03368e-14 0
lhumerus -52.5051 -42.9588 115.01
lradius 52.0987 -0 0
lwrist 15.271 0 0
lhand 39.006 27.8298 0.00833078
lfingers 7.12502 -0 0
lthumb 61.5651 39.8462 0.00530474
rclavicle -1.60469e-13 -1.03368e-14 0
rhumerus -52.6761 6.89571 -90.0957
rradius 96.3412 -0 0
rwrist -2.85709 0 0
rhand -10.7797 -21.2799 0.169534
rfingers 7.12502 -0 0
rthumb 15.1864 -50.3608 0.315964
177
root 6.02104 16.1025 -25.4859 4.74882 22.9848 1.32304
lfemur -20.8532 17.8302 -3.55422
ltibia 38.2546 0 0
lfoot -14.7473 -14.3766 0
ltoes -6.06648 0 0
rfemur -15.5118 -5.38319 -5.48015
rtibia 44.5662 0 0
rfoot -9.94619 -25.2064 0
rtoes 41.854 0 0
lowerback -1.10835 -2.60626 -0.278881
upperback -0.0485382 -3.43622 -4.62668
thorax 0.302226 -1.71484 -4.65037
lowerneck -10.2658 -7.09673 1.06079
upperneck 2.43545 -9.89567 5.42295
head 2.80915 -4.70623 1.00875
lclavicle -1.04958e-13 -4.45278e-14 0
lhumerus -52.9557 -43.0613 115.299
lradius 52.1813 0 0
lwrist 15.5618 0 0
lhand 39.1347 28.3237 0
lfingers 7.12502 0 0
lthumb 61.6741 40.2175 0
rclavicle -1.04958e-13 -4.45278e-14 0
rhumerus -52.8828 8.75544 -91.2104
rradius 96.2906 0 0
rwrist -1.2694 0 0
rhand -13.2023 -21.7955 0
rfingers 7.12502 0 0
rthumb 12.8982 -411.377 0
178
root 5.9652 16.0597 -25.4743 4.91351 21.8284 1.59504
lfemur -19.1482 16.5515 -2.85448
ltibia 36.2403 -0 0
lfoot -15.3422 -14.791 0.0323649
ltoes -2.48052 0 0
rfemur -16.0009 -5.9428 -5.78158
rtibia 44.5536 -0 0
rfoot -11.0575 -23.1241 -0.313123
rtoes 42.7863 -0 0
lowerback -1.30274 -2.61254 -0.308969
upperback -0.075866 -3.43766 -4.77637
thorax 0.375183 -1.71742 -4.80183
lowerneck -10.4232 -6.70317 1.18997
upperneck 2.51714 -9.3881 5.30807
head 2.84943 -4.45297 0.979756
lclavicle -1.04958e-13 -4.45278e-14 0
lhumerus -53.0977 -43.0163 115.099
lradius 52.3143 -0 0
lwrist 15.9637 0 0
lhand 39.3404 28.4178 0.00253382
lfingers 7.12502 -0 0
lthumb 61.8427 40.08 -0.00303604
rclavicle -1.04958e-13 -4.45278e-14 0
rhumerus -52.7559 11.3572 -88.4007
rradius 97.6036 -0 0
rwrist -3.06699 0 0
rhand -10.2501 -21.0491 0.304944
rfingers 7.12502 -0 0
rthumb 15.6413 -49.8266 0.591916
179
root 5.90936 16.0169 -25.4627 5.07104 20.6713 1.86136
lfemur -17.4705 15.2536 -2.19895
ltibia 34.2261 -0 0
lfoot -15.9372 -15.2057 0.060425
ltoes 1.10544 -0 0
rfemur -16.4876 -6.50494 -6.07851
rtibia 44.541 -0 0
rfoot -12.1794 -21.0359 -0.585604
rtoes 43.7187 -0 0
lowerback -1.49713 -2.61892 -0.339035
upperback -0.10319 -3.43918 -4.92607
thorax 0.448147 -1.71981 -4.95329
lowerneck -10.5796 -6.30926 1.31795
upperneck 2.59769 -8.88038 5.19408
head 2.88956 -4.19969 0.95095
lclavicle -1.04958e-13 -4.45278e-14 0
lhumerus -53.2397 -42.9716 114.898
lradius 52.4473 -0 0
lwrist 16.3656 0 0
lhand 39.546 28.5119 0.00472988
lfingers 7.12502 -0 0
lthumb 62.0114 39.9425 -0.00566736
rclavicle -1.04958e-13 -4.45278e-14 0
rhumerus -52.4964 13.9497 -85.5564
rradius 98.9166 -0 0
rwrist -4.86458 0 0
rhand -7.29415 -20.2879 0.571016
rfingers 7.12502 -0 0
rthumb 18.3997 -48.2495 1.10874
180
root 5.85352 15.9741 -25.4511 5.22171 19.5135 2.12234
lfemur -15.8181 13.938 -1.58673
ltibia 32.2118 -0 0
lfoot -16.5325 -15.6207 0.0841758
ltoes 4.6914 -0 0
rfemur -16.9719 -7.06956 -6.37096
rtibia 44.5284 -0 0
rfoot -13.3106 -18.9428 -0.816974
rtoes 44.651 -0 0
lowerback -1.69151 -2.62541 -0.36908
upperback -0.13051 -3.44076 -5.07576
thorax 0.521117 -1.722 -5.10475
lowerneck -10.735 -5.91501 1.44476
upperneck 2.67711 -8.37249 5.08097
head 2.92955 -3.94638 0.922331
lclavicle -1.04958e-13 -4.45278e-14 0
lhumerus -53.3819 -42.9272 114.698
lradius 52.5802 -0 0
lwrist 16.7675 0 0
lhand 39.7517 28.606 0.00658814
lfingers 7.12502 -0 0
lthumb 62.1801 39.805 -0.00789393
rclavicle -1.04958e-13 -4.45278e-14 0
rhumerus -52.0999 16.5262 -82.6646
rradius 100.23 -0 0
rwrist -6.66216 0 0
rhand -4.33474 -19.514 0.797458
rfingers 7.12502 -0 0
rthumb 21.1719 -46.649 1.54888
181
root 5.79768 15.9313 -25.4395 5.36577 18.3551 2.37831
lfemur -14.1891 12.6059 -1.01695
ltibia 30.1976 -0 0
lfoot -17.1279 -16.0359 0.103613
ltoes 8.27736 -0 0
rfemur -17.454 -7.63661 -6.65897
rtibia 44.5158 -0 0
rfoot -14.4496 -16.8454 -1.00683
rtoes 45.5833 -0 0
lowerback -1.88589 -2.632 -0.399103
upperback -0.157826 -3.44242 -5.22546
thorax 0.594092 -1.724 -5.25622
lowerneck -10.8894 -5.52042 1.57041
upperneck 2.75541 -7.86445 4.96872
head 2.96941 -3.69306 0.893897
lclavicle -1.04958e-13 -4.45278e-14 0
lhumerus -53.5242 -42.8833 114.497
lradius 52.7132 -0 0
lwrist 17.1694 0 0
lhand 39.9574 28.7001 0.00810857
lfingers 7.12502 -0 0
lthumb 62.3487 39.6675 -0.00971571
rclavicle -1.04958e-13 -4.45278e-14 0
rhumerus -51.5607 19.0799 -79.7122
rradius 101.543 -0 0
rwrist -8.45975 0 0
rhand -1.37237 -18.7294 0.983624
rfingers 7.12502 -0 0
rthumb 23.9558 -45.0288 1.91095
